<svg width="32" height="32" viewBox="0 0 32 32" fill="none" xmlns="http://www.w3.org/2000/svg">
<mask id="mask0_803_2972" style="mask-type:alpha" maskUnits="userSpaceOnUse" x="0" y="0" width="32" height="32">
<rect width="32" height="32" fill="#D9D9D9"/>
</mask>
<g mask="url(#mask0_803_2972)">
<path d="M14.6594 24.6666C17.4298 24.6666 19.7903 23.6988 21.7407 21.7633C23.6914 19.8279 24.6667 17.4648 24.6667 14.6739C24.6667 11.9035 23.694 9.54305 21.7484 7.59261C19.8028 5.64194 17.445 4.6666 14.6747 4.6666C11.8843 4.6666 9.51862 5.63938 7.57773 7.58494C5.63707 9.53049 4.66673 11.8884 4.66673 14.6586C4.66673 17.449 5.63451 19.8147 7.57007 21.7556C9.5054 23.6963 11.8685 24.6666 14.6594 24.6666ZM14.6681 17.8223C15.519 17.8223 16.2611 17.5137 16.8944 16.8966C17.5277 16.2797 17.8444 15.5359 17.8444 14.6653C17.8444 13.8144 17.5277 13.0723 16.8944 12.4389C16.2611 11.8056 15.5225 11.4889 14.6787 11.4889C13.7967 11.4889 13.0483 11.8056 12.4334 12.4389C11.8185 13.0723 11.5111 13.8108 11.5111 14.6546C11.5111 15.5366 11.8196 16.285 12.4367 16.8999C13.0536 17.5148 13.7974 17.8223 14.6681 17.8223ZM14.6777 20.2666C12.7742 20.2666 11.0761 19.7463 9.5834 18.7056C8.09073 17.6647 7.01851 16.3184 6.36673 14.6666C7.01851 13.0148 8.08995 11.6648 9.58107 10.6166C11.072 9.56838 12.7674 9.04427 14.6674 9.04427C16.5558 9.04427 18.2426 9.56772 19.7277 10.6146C21.2131 11.6615 22.2891 13.0116 22.9557 14.6649C22.2844 16.3276 21.2096 17.6769 19.7314 18.7129C18.2532 19.7487 16.5686 20.2666 14.6777 20.2666ZM14.6667 16.7109C15.2285 16.7109 15.7134 16.5128 16.1214 16.1166C16.5294 15.7204 16.7334 15.237 16.7334 14.6666C16.7334 14.1048 16.5294 13.6199 16.1214 13.2119C15.7134 12.8039 15.2285 12.5999 14.6667 12.5999C14.0963 12.5999 13.613 12.8039 13.2167 13.2119C12.8205 13.6199 12.6224 14.1048 12.6224 14.6666C12.6224 15.237 12.8205 15.7204 13.2167 16.1166C13.613 16.5128 14.0963 16.7109 14.6667 16.7109ZM28.1891 30.2999L22.7111 24.7999C21.6015 25.6877 20.3637 26.3763 18.9977 26.8656C17.6317 27.3552 16.1881 27.5999 14.6667 27.5999C12.8734 27.5999 11.1935 27.2629 9.62707 26.5889C8.06084 25.9147 6.69073 24.9906 5.51673 23.8166C4.34273 22.6426 3.41862 21.2719 2.7444 19.7046C2.0704 18.1375 1.7334 16.4567 1.7334 14.6623C1.7334 12.88 2.0704 11.2037 2.7444 9.63327C3.41862 8.06283 4.34184 6.69027 5.51407 5.5156C6.68629 4.34071 8.05662 3.41294 9.62507 2.73227C11.1933 2.05138 12.8753 1.71094 14.6711 1.71094C16.4533 1.71094 18.1273 2.05249 19.6931 2.7356C21.2588 3.41894 22.6311 4.34671 23.8097 5.51894C24.9884 6.69138 25.9185 8.0616 26.6001 9.6296C27.2816 11.1976 27.6224 12.8748 27.6224 14.6613C27.6224 16.2068 27.372 17.6629 26.8711 19.0296C26.3704 20.3963 25.6764 21.6383 24.7891 22.7556L30.2667 28.2223L28.1891 30.2999Z" fill="#4623A7"/>
</g>
</svg>
